<svg height="40" viewBox="0 0 26 40" width="26" xmlns="http://www.w3.org/2000/svg" xmlns:xlink="http://www.w3.org/1999/xlink"><mask id="a" fill="#fff"><path d="m0 0h40v40h-40z" fill="#fff" fill-rule="evenodd"/></mask><path d="m27.3713419 30.2109092h-.0208696l.0208696-8.9831884-.1982609-.0005797.1982609-.0017391c0-.8388406.6608695-1.5217392 1.4730435-1.5217392.8121739 0 1.4736231.6828986 1.4736231 1.5217392v8.9855072c0 .8388406-.6614492 1.5217391-1.4736231 1.5217391-.812174 0-1.4730435-.6828985-1.4730435-1.5217391m-3.5269565 2.862029c-.812174 0-1.4730435-.6823189-1.4730435-1.5368116l-.0939131-6.2626087c.9217392-.6875362 1.3118841-1.4301449 1.1953623-2.2556522-.1060869-.7547826-.6765217-1.3681159-1.5530434-1.8626087l.5686956-2.8197101c.4324638-.382029 1.0857971-.5884058 1.3443478-.5884058.812174 0 1.4730435.6828985 1.4730435 1.5402898l.0365218 1.9542029-.0243479 10.310145c0 .8388405-.6614492 1.5211594-1.4736231 1.5211594m-12.5565218-28.37797103c.3802899-.07072464.7733333.01449275 1.097971.24173913.3310145.23188406.5542029.58086957.6394203 1.03188406l2.6005797 10.99710144 1.9802899-.0260869 2.8446377-13.65275367c.0736232-.40347826.2956521-.75362319.6255072-.98666667.3234783-.22956522.7113044-.31594203 1.0968116-.24695652.3831884.06956522.7176812.28869565.9397101.61681159.2266667.33333334.3107247.73971015.2405798 1.12405798l-3.3472464 16.58376809c-2.115942-.6284058-4.9142029-.9211594-7.5744928-.9872464l-2.3130434-12.92869561c-.15362324-.82550724.3710144-1.61797101 1.1692753-1.76695652m17.5565218 12.97971013c-.6156522 0-1.1947827.1617391-1.6973914.4457971-.471884-1.3965217-1.7797101-2.4023188-3.3142029-2.4023188-.2475362 0-.5373913.0457971-.8417391.1269565l2.3553623-11.66782609c.1692754-.92985507-.0272463-1.86956522-.5542029-2.64695652-.5310145-.78202899-1.3321739-1.30550725-2.2562318-1.47362319-.924058-.16811594-1.8585508.04057971-2.6307247.58608696-.7663768.54202898-1.2817391 1.35188406-1.4452174 2.25565217l-1.9095652 9.16231887-1.5402898-6.51072467c-.1727537-.92927536-.6915942-1.73681159-1.4608696-2.27536231-.7750725-.54144928-1.7084058-.74492754-2.6336232-.57449276-1.8973913.3542029-3.15014493 2.20869565-2.79304348 4.12637681l2.24695648 12.55768113c-.67536228.0121739-1.32695648.0376812-1.93623184.0759421l-.78492754.0492753-.14724637.7733334c-.09855073.5176811-2.34608696 12.7460869 3.55304345 19.2255072l1.4997102-1.3652174c-4.42724641-4.8637681-3.55768119-13.9884058-3.18144931-16.702029 6.75536231-.3113043 11.53913041.9623189 12.07246381 1.8388406-.142029.2272464-1.1495653 1.3976812-7.292174 2.7530435l.4371015 1.9814493c2.3907246-.5275363 4.2695652-1.0724638 5.6742029-1.6527537l.0782609 5.190145c0 1.9571014 1.5710145 3.5507246 3.502029 3.5507246 1.347826 0 2.5188405-.7773913 3.1043478-1.9107246.4313043.2834782.9275362.471884 1.4608695.5391304-.32 2.6017391-1.7866666 4.4289855-1.8017391 4.4469565l1.5623189 1.2956522c.089855-.1089855 2.0997101-2.5791304 2.311884-6.1263768 1.1078261-.5965218 1.8649275-1.777971 1.8649275-3.1362319v-8.9855072c0-1.9576812-1.5710144-3.5507247-3.5026086-3.5507247" fill="#222" fill-rule="evenodd" mask="url(#a)" transform="translate(-7)"/></svg>